<?xml version="1.0" encoding="UTF-8" standalone="no"?>
<!-- Created with Inkscape (http://www.inkscape.org/) -->

<svg
   xmlns:dc="http://purl.org/dc/elements/1.1/"
   xmlns:cc="http://creativecommons.org/ns#"
   xmlns:rdf="http://www.w3.org/1999/02/22-rdf-syntax-ns#"
   xmlns:svg="http://www.w3.org/2000/svg"
   xmlns="http://www.w3.org/2000/svg"
   xmlns:sodipodi="http://sodipodi.sourceforge.net/DTD/sodipodi-0.dtd"
   xmlns:inkscape="http://www.inkscape.org/namespaces/inkscape"
   width="744.09448819"
   height="1052.3622047"
   id="svg2"
   version="1.1"
   inkscape:version="0.48.5 r10040"
   sodipodi:docname="New document 1">
  <defs
     id="defs4" />
  <sodipodi:namedview
     id="base"
     pagecolor="#ffffff"
     bordercolor="#666666"
     borderopacity="1.0"
     inkscape:pageopacity="0.0"
     inkscape:pageshadow="2"
     inkscape:zoom="0.49497475"
     inkscape:cx="758.26324"
     inkscape:cy="300.73733"
     inkscape:document-units="px"
     inkscape:current-layer="layer1"
     showgrid="false"
     inkscape:window-width="1067"
     inkscape:window-height="801"
     inkscape:window-x="0"
     inkscape:window-y="1"
     inkscape:window-maximized="0" />
  <metadata
     id="metadata7">
    <rdf:RDF>
      <cc:Work
         rdf:about="">
        <dc:format>image/svg+xml</dc:format>
        <dc:type
           rdf:resource="http://purl.org/dc/dcmitype/StillImage" />
        <dc:title></dc:title>
      </cc:Work>
    </rdf:RDF>
  </metadata>
  <g
     inkscape:label="Layer 1"
     inkscape:groupmode="layer"
     id="layer1">
    <path
       style="fill:#000000"
       d="m 587.64395,952.37717 c -15.662,-3.39166 -29.79177,-14.62291 -37.6585,-29.9334 -2.26078,-4.4 -4.41404,-9.00063 -4.78502,-10.22363 -0.66282,-2.18508 -0.61337,-2.19809 2.85238,-0.75 5.39106,2.25252 14.20402,1.86773 20.09114,-0.87723 5.41769,-2.52608 15.35167,-12.43361 17.63185,-17.58489 0.74601,-1.68534 1.61363,-3.06425 1.92805,-3.06425 0.31442,0 2.7194,2.1375 5.34439,4.75 5.16212,5.13755 11.59321,15.34063 13.70923,21.75 2.1995,6.66221 1.75186,21.83753 -0.8923,30.25 l -2.27879,7.25 -4.72121,-0.0795 c -2.59667,-0.0437 -7.64622,-0.71292 -11.22122,-1.4871 z"
       id="path3153" />
    <path
       style="fill:#000000"
       d="m 837.42273,946.69377 c -1.71988,-5.47185 -2.2707,-9.57998 -2.24583,-16.75 0.0376,-10.834 1.12277,-14.85195 6.48208,-24 3.387,-5.78144 12.31801,-16 13.98397,-16 0.34682,0 1.40015,1.61381 2.34073,3.58624 2.64014,5.53642 11.60013,14.43742 17.16027,17.04728 5.88363,2.76171 14.68248,3.15273 20.09114,0.89285 3.4669,-1.44857 3.51517,-1.43581 2.83747,0.75 -2.71893,8.7694 -11.50757,21.98245 -19.02006,28.59521 -8.43961,7.42885 -23.53675,13.06337 -35.12977,13.11106 l -4.22121,0.0174 -2.27879,-7.25 z"
       id="path3151" />
    <path
       style="fill:#000000"
       d="m 546.42483,906.89152 c -5.07492,-2.67976 -6.15553,-5.08916 -5.42353,-12.09257 0.42158,-4.03346 0.23049,-6.12224 -0.62507,-6.83266 -0.67776,-0.56277 -2.35728,-1.88331 -3.73228,-2.93452 -3.79303,-2.89984 -3.52833,-9.61968 0.58081,-14.74518 3.48352,-4.34512 15.84383,-13.598 20.18735,-15.11216 3.09518,-1.07898 5.15542,-0.38721 12.73184,4.27501 4.84691,2.98258 9.51106,3.12603 15.3592,0.47237 2.39757,-1.08792 4.76007,-1.97804 5.25,-1.97804 3.09188,0 -1.13592,19.13152 -6.64553,30.07213 -4.5578,9.0506 -13.4031,18.2623 -19.03822,19.82685 -6.13879,1.70438 -14.41506,1.28214 -18.64457,-0.95123 z"
       id="path3149" />
    <path
       style="fill:#000000"
       d="m 877.74738,907.78701 c -4.69841,-1.35061 -14.24812,-11.19418 -17.85325,-18.40262 -4.39906,-8.79587 -7.27732,-17.92538 -7.96161,-25.25329 -0.68427,-7.32772 -1.32117,-7.04333 7.90607,-3.53028 4.11791,1.5678 5.28498,1.62959 9.5,0.50303 2.64295,-0.70638 5.70536,-2.1264 6.80536,-3.1556 4.02019,-3.7614 6.90363,-4.10787 12.1668,-1.46194 6.43519,3.23513 13.94531,9.07624 17.74351,13.80028 4.11862,5.12256 4.38733,11.84181 0.58969,14.74518 -1.375,1.05121 -3.05452,2.37175 -3.73228,2.93452 -0.85556,0.71042 -1.04665,2.7992 -0.62507,6.83266 0.74015,7.08132 -0.35913,9.44937 -5.63625,12.14155 -4.2903,2.18875 -12.89346,2.57401 -18.90297,0.84651 z"
       id="path3147" />
    <path
       style="fill:#000000"
       d="m 448.02573,900.69377 c -2.6856,-8.91976 -2.67824,-40.5258 0.0122,-52.38474 2.45594,-10.8253 2.69865,-11.14756 6.407,-8.50698 1.65428,1.17795 3.24651,2.14172 3.5383,2.14172 0.29179,0 1.62264,0.41522 2.95744,0.92271 l 2.4269,0.92271 -2.33949,15.82729 c -3.50147,23.68828 -8.68812,47.32729 -10.38413,47.32729 -0.40505,0 -1.58325,-2.8125 -2.61822,-6.25 z"
       id="path3145" />
    <path
       style="fill:#000000"
       d="m 990.3907,901.19377 c -2.7175,-9.88245 -5.701,-25.13837 -8.1309,-41.57729 l -2.3395,-15.82729 2.4269,-0.92271 c 1.3348,-0.50749 2.6657,-0.92271 2.9575,-0.92271 0.2918,0 1.884,-0.96377 3.5383,-2.14172 3.7052,-2.63838 3.9412,-2.32626 6.4312,8.50698 2.7044,11.76615 2.6876,42.22685 -0.029,51.88474 -1.0441,3.7125 -2.2078,6.75 -2.586,6.75 -0.3782,0 -1.3992,-2.5875 -2.2688,-5.75 z"
       id="path3143" />
    <path
       style="fill:#000000"
       d="m 570.69802,855.77949 c -9.14071,-6.21377 -9.77663,-18.09025 -1.39335,-26.0221 2.78681,-2.63674 7.20345,-4.81362 9.76628,-4.81362 0.86245,0 1.52214,2.19939 1.96955,6.56636 0.81579,7.96258 2.89138,13.45384 6.15931,16.29526 3.245,2.8215 3.08173,4.54819 -0.68362,7.22935 -4.69112,3.34038 -11.52649,3.6622 -15.81817,0.74475 z"
       id="path3141" />
    <path
       style="fill:#000000"
       d="m 858.14395,855.65029 c -4.82783,-2.72843 -5.63335,-5.7339 -2.14874,-8.0171 2.97234,-1.94756 5.42984,-8.11624 6.44959,-16.18942 0.73241,-5.79842 0.85233,-5.99326 3.56952,-5.79928 3.45389,0.24658 9.14563,4.45795 11.71103,8.66511 2.58146,4.23349 2.54502,12.09451 -0.076,16.39331 -4.29878,7.05056 -12.22608,9.06125 -19.5054,4.94738 z"
       id="path3139" />
    <path
       style="fill:#000000"
       d="m 596.65489,847.98386 c -6.36701,-2.19765 -9.48553,-5.37515 -11.0774,-11.28689 -3.60039,-13.37084 4.30413,-21.39248 19.91403,-20.20912 8.16441,0.61893 17.97443,3.82848 18.87501,6.17535 0.32169,0.83832 -0.21473,3.7479 -1.19205,6.46572 -1.55692,4.32967 -1.62341,5.66499 -0.53693,10.78468 0.682,3.21375 0.94618,6.31859 0.58707,6.89965 -2.10052,3.39871 -18.07541,4.10253 -26.56973,1.17061 z"
       id="path3137" />
    <path
       style="fill:#000000"
       d="m 823.94318,848.89455 c -4.38338,-1.34544 -4.71896,-2.26071 -3.29283,-8.98095 1.08648,-5.11969 1.01999,-6.45501 -0.53693,-10.78468 -0.97732,-2.71782 -1.51374,-5.6274 -1.19205,-6.46572 0.90058,-2.34687 10.7106,-5.55642 18.87501,-6.17535 5.66749,-0.42965 8.35297,-0.15538 11.74451,1.19946 6.40983,2.56056 8.6042,6.02639 8.59796,13.57979 -0.0101,12.27885 -6.83934,17.86104 -22.44283,18.34478 -4.70364,0.14582 -9.99242,-0.17698 -11.75284,-0.71733 z"
       id="path3135" />
    <path
       style="fill:#000000"
       d="m 696.64395,845.0036 c -23.47107,-2.49435 -37.58804,-8.73846 -62.31745,-27.56377 -28.03313,-21.34029 -49.61515,-34.00664 -68.18255,-40.0159 -13.18619,-4.26766 -40.10461,-9.06239 -73.7478,-13.13603 -17.46129,-2.11427 -31.74879,-4.0877 -31.75,-4.3854 -10e-4,-0.2977 7.5353,-1.34108 16.7478,-2.31864 41.29693,-4.38208 55.25,-10.24397 55.25,-23.21133 l 0,-4.27547 2.99414,1.49367 c 6.42728,3.20635 11.17894,-0.80058 11.31075,-9.53801 0.0424,-2.80992 0.16117,-5.10895 0.26397,-5.10895 0.10279,0 1.80239,0.675 3.7769,1.5 5.18899,2.1681 6.53597,1.90516 10.21303,-1.99366 2.23036,-2.36486 3.6874,-5.24734 4.50962,-8.92143 1.10029,-4.91659 1.41326,-5.35302 3.32314,-4.63399 4.62525,1.74129 9.52301,-2.20691 9.57665,-7.71997 0.0287,-2.94855 0.26778,-3.20983 2.43866,-2.66497 3.61805,0.90807 6.22518,-1.03562 8.1502,-6.07621 1.38678,-3.63123 2.10041,-4.41587 3.58706,-3.94403 4.22696,1.34159 7.85588,-2.39677 7.85588,-8.09279 0,-2.79559 -0.0147,-2.78924 3.42622,-1.481 1.40603,0.53457 3.25196,0.70504 4.10208,0.37882 1.89277,-0.72633 4.4717,-5.51376 4.4717,-8.30111 0,-2.1502 1.44489,-2.75686 2.5,-1.04966 0.33992,0.55 2.12647,1 3.97012,1 4.30929,0 7.83737,-4.01911 9.61432,-10.9524 0.71151,-2.77618 1.58884,-5.0476 1.94962,-5.0476 0.36078,0 1.51215,0.94607 2.55859,2.10238 7.40217,8.1793 20.19111,5.76654 30.29856,-5.71612 l 4.1614,-4.7276 3.2713,3.17067 c 4.31182,4.17917 7.92347,4.18786 11.80899,0.0284 l 2.93532,-3.14227 2.28034,2.14227 c 3.30756,3.1073 9.584,2.91134 13.54655,-0.42292 l 3.04856,-2.5652 2.25827,2.10389 c 3.49963,3.26041 6.69799,3.6295 11.0055,1.27005 l 3.79256,-2.07739 3.79256,2.07739 c 4.32296,2.36792 8.02868,1.93521 11.28115,-1.31726 l 2.02284,-2.02284 3.02845,2.54828 c 3.91284,3.29244 10.45436,3.52046 13.7198,0.47823 l 2.22193,-2.07004 2.86784,3.07004 c 3.89591,4.17058 7.80232,4.11925 11.98362,-0.15748 l 3.1555,-3.22752 4.08139,4.77482 c 9.83081,11.50106 22.82869,13.98556 30.25227,5.7826 1.04644,-1.15631 2.19781,-2.10238 2.55859,-2.10238 0.36078,0 1.23811,2.27142 1.94962,5.0476 1.77695,6.93329 5.30503,10.9524 9.61432,10.9524 1.84365,0 3.6302,-0.45 3.97012,-1 1.05511,-1.7072 2.5,-1.10054 2.5,1.04966 0,2.78735 2.57893,7.57478 4.4717,8.30111 0.85012,0.32622 2.69605,0.15575 4.10208,-0.37882 3.44092,-1.30824 3.42622,-1.31459 3.42622,1.481 0,5.69602 3.62892,9.43438 7.85588,8.09279 1.48025,-0.46981 2.19326,0.2944 3.52284,3.77586 1.82838,4.78756 5.21106,7.26076 8.50212,6.21622 1.86471,-0.59184 2.12298,-0.27427 2.15096,2.64479 0.0532,5.54746 4.93397,9.50893 9.5779,7.77387 1.91008,-0.71365 2.22451,-0.27519 3.32313,4.63399 1.33532,5.96684 6.38366,12.40953 9.72381,12.40953 1.05626,0 3.52634,-0.81872 5.48906,-1.81937 l 3.56859,-1.81937 0,5.38955 c 0,9.02606 4.72852,13.17023 11.29157,9.89615 l 2.99414,-1.49367 0,4.27547 c 0,13.57899 17.49368,20.15296 64.25,24.14459 4.26255,0.36389 7.74905,0.94626 7.74775,1.29414 0,0.34788 -14.28866,2.36237 -31.74995,4.47664 -33.87798,4.10207 -61.50477,9.0278 -74.04318,13.20158 -18.73968,6.23804 -41.07602,19.40318 -68.70462,40.4948 -29.55983,22.56591 -42.13622,26.82772 -81,27.44881 -12.65,0.20216 -26.375,0.009 -30.5,-0.42949 z"
       id="path3133" />
    <path
       style="fill:#000000"
       d="m 627.57444,841.69377 c -1.4975,-2.38561 -1.924,-4.39116 -1.60356,-7.54058 0.55006,-5.40631 2.69485,-7.79738 7.71418,-8.6 3.49693,-0.55919 4.6368,-0.16212 9.95403,3.46738 3.30267,2.25439 6.00486,4.34374 6.00486,4.64301 0,0.29927 -0.92268,2.03705 -2.05041,3.86175 -2.92074,4.72587 -7.7598,7.41844 -13.33232,7.41844 -4.15724,0 -4.86155,-0.34232 -6.68678,-3.25 z"
       id="path3131" />
    <path
       style="fill:#000000"
       d="m 801.03918,843.04305 c -2.67912,-1.63369 -7.39523,-7.64745 -7.39523,-9.43005 0,-0.32709 2.62673,-2.37848 5.83717,-4.55865 5.12382,-3.47952 6.34091,-3.89638 9.95922,-3.41106 5.16042,0.69215 7.31849,3.02371 7.87668,8.5099 0.32044,3.14942 -0.10606,5.15497 -1.60356,7.54058 -1.8378,2.9277 -2.51262,3.24963 -6.80481,3.24626 -2.90945,-0.002 -5.97362,-0.74092 -7.86947,-1.89698 z"
       id="path3129" />
    <path
       style="fill:#000000"
       d="m 457.39395,836.98323 c -9.6462,-7.66302 9.04079,-22.80845 34.08797,-27.62761 7.36113,-1.41631 26.05645,-1.73282 31.64982,-0.53583 7.80875,1.67108 1.6464,7.39978 -18.98779,17.6516 -16.96758,8.43011 -26.05247,11.49953 -36,12.16294 -7.1754,0.47853 -8.28346,0.30835 -10.75,-1.6511 z"
       id="path3127" />
    <path
       style="fill:#000000"
       d="m 966.11214,837.45429 c -18.38846,-4.9622 -50.11686,-21.90371 -49.26881,-26.30728 0.49002,-2.54449 7.05864,-3.4164 21.80062,-2.89377 10.92796,0.38742 15.02417,0.97408 21.5,3.07926 22.79715,7.41094 35.42565,20.87695 24.81575,26.46157 -2.8977,1.52522 -12.5835,1.35061 -18.84756,-0.33978 z"
       id="path3125" />
    <path
       style="fill:#000000"
       d="m 527.86455,806.7517 c -2.54053,-1.56982 -5.63848,-2.14678 -13.75,-2.56077 -5.75883,-0.29391 -10.4698,-0.80726 -10.46881,-1.14077 9.8e-4,-0.33352 1.93032,-1.82469 4.28742,-3.31373 4.79053,-3.02629 12.18847,-5.19643 21.30202,-6.2488 13.77929,-1.59115 19.61744,6.73331 9.06098,12.91981 -5.10266,2.99035 -6.09622,3.02314 -10.43161,0.34426 z"
       id="path3123" />
    <path
       style="fill:#000000"
       d="m 904.89963,806.38101 c -6.83978,-4.09941 -7.06698,-9.36466 -0.52209,-12.09929 6.62646,-2.76871 23.57433,0.54813 32.19428,6.3007 4.1533,2.77172 3.62154,3.0044 -8.59378,3.76036 -8.81613,0.5456 -14.33409,1.9936 -14.33409,3.76151 0,1.67026 -4.5923,0.76524 -8.74432,-1.72328 z"
       id="path3121" />
    <path
       style="fill:#000000"
       d="m 546.09311,806.67188 c -0.33174,-0.86451 -0.11852,-2.47741 0.47384,-3.58423 1.64339,-3.07072 1.30926,-5.33781 -1.36724,-9.27664 l -2.44424,-3.59702 2.69424,-1.27602 c 1.54817,-0.73323 8.28885,-1.48285 15.84636,-1.76224 11.42337,-0.42231 14.05224,-0.20959 20,1.61833 8.2132,2.52416 28.23426,14.10138 26.2063,15.15384 -1.77074,0.91897 -25.17251,2.80812 -45.08226,3.63934 -13.76733,0.57478 -15.79889,0.46088 -16.327,-0.91536 z"
       id="path3119" />
    <path
       style="fill:#000000"
       d="m 873.14395,807.30764 c -19.143,-1.18238 -36.20936,-2.70201 -37.35842,-3.32648 -2.01275,-1.09385 17.90227,-12.63503 26.2063,-15.1871 5.95753,-1.83092 8.55787,-2.03984 20,-1.60681 7.23366,0.27376 14.40061,0.99901 15.92654,1.61167 l 2.77443,1.11392 -2.64466,3.99634 c -1.98955,3.00642 -2.47738,4.68228 -1.96937,6.76547 1.70955,7.01037 2.01703,6.76047 -8.43482,6.85547 -5.225,0.0475 -11.75,-0.0526 -14.5,-0.22248 z"
       id="path3117" />
    <path
       style="fill:#000000"
       d="m 469.10019,752.69033 c -0.32438,-0.84531 -0.0858,-3.40849 0.53014,-5.69596 0.63311,-2.35122 0.82291,-6.13954 0.43664,-8.71538 -0.80437,-5.36394 0.10548,-6.30711 6.07698,-6.29949 9.9372,0.0127 51.5,6.53261 51.5,8.07878 0,0.9445 -5.8806,4.75299 -10.30826,6.67602 -4.15521,1.80469 -27.89234,6.00177 -38.4523,6.79894 -7.77842,0.5872 -9.2842,0.45746 -9.7832,-0.84291 z"
       id="path3115" />
    <path
       style="fill:#000000"
       d="m 959.64395,753.27568 c -8.76553,-0.97776 -30.96191,-5.41771 -34.53753,-6.90855 -4.57763,-1.90863 -9.46247,-5.19415 -9.46247,-6.3644 0,-2.17377 51.02878,-9.13676 55.81851,-7.61656 1.81202,0.57511 2.06284,1.46766 2.06718,7.35606 0.003,3.68585 0.14204,8.27654 0.30962,10.20154 l 0.30469,3.5 -5.5,0.11116 c -3.025,0.0611 -7.075,-0.0645 -9,-0.27925 z"
       id="path3113" />
    <path
       style="fill:#000000"
       d="m 455.24628,746.45116 c -11.23547,-3.34205 -21.62951,-8.76559 -28.057,-14.63995 -9.03026,-8.25316 -7.62461,-9.29788 11.68463,-8.6843 10.2912,0.32701 12.95762,0.75125 16.53344,2.63054 4.91921,2.5853 9.91063,8.93184 10.81466,13.75071 0.65833,3.50922 -0.55609,8.64443 -2.14056,9.05141 -0.51563,0.13244 -4.49145,-0.81634 -8.83517,-2.10841 z"
       id="path3111" />
    <path
       style="fill:#000000"
       d="m 977.53138,746.73344 c -2.99214,-5.59088 2.27822,-16.37455 10.15702,-20.78236 3.9338,-2.2008 5.8923,-2.53492 16.7256,-2.85338 19.2195,-0.56498 20.6876,0.48525 11.9023,8.51452 -6.4397,5.88553 -14.5266,10.32484 -25.0897,13.77298 -11.2623,3.67639 -12.3898,3.78739 -13.69522,1.34824 z"
       id="path3109" />
    <path
       style="fill:#000000"
       d="m 518.43483,727.67085 c -11.66435,-6.01154 -19.37339,-11.32586 -25.93462,-17.87836 -7.12245,-7.11296 -7.95405,-9.37449 -4.49546,-12.22537 1.41679,-1.16784 3.47421,-4.26085 4.57205,-6.87335 2.318,-5.51608 3.31618,-5.74417 12.56715,-2.87168 16.48322,5.11815 43.26137,18.29463 52.43333,25.8004 0.23834,0.19504 -0.0903,0.87821 -0.7302,1.51815 -0.88473,0.88473 -2.37118,0.59792 -6.20313,-1.19687 -3.54108,-1.65855 -5.3539,-2.0461 -6.09664,-1.30336 -0.58139,0.58139 -1.18472,4.06472 -1.34074,7.74074 -0.34609,8.15397 -1.36484,9.49368 -5.82659,7.66224 -1.77981,-0.73057 -4.47353,-1.55293 -5.98603,-1.82747 -2.51805,-0.45705 -2.75,-0.23653 -2.75,2.61435 0,1.71243 -0.4316,3.1135 -0.95912,3.1135 -0.52752,0 -4.69002,-1.92282 -9.25,-4.27292 z"
       id="path3107" />
    <path
       style="fill:#000000"
       d="m 914.64395,728.83027 c 0,-2.85088 -0.23195,-3.0714 -2.75,-2.61435 -1.5125,0.27454 -4.20622,1.0969 -5.98603,1.82747 -4.46175,1.83144 -5.4805,0.49173 -5.82659,-7.66224 -0.36664,-8.63838 -1.20308,-9.43558 -6.96364,-6.63689 -9.12379,4.43268 -10.35429,1.56518 -1.71499,-3.99653 13.01622,-8.37943 32.40319,-17.47358 46.74125,-21.92564 9.34567,-2.9019 10.16412,-2.68745 12.86823,3.37168 1.28865,2.8875 3.30798,6.10724 4.48739,7.15499 1.17941,1.04774 2.14438,2.51857 2.14438,3.26852 0,2.04014 -11.65765,13.26664 -18.5,17.81578 -5.92713,3.94065 -22.16579,12.51071 -23.70547,12.51071 -0.43699,0 -0.79453,-1.40107 -0.79453,-3.1135 z"
       id="path3105" />
    <path
       style="fill:#000000"
       d="m 407.0844,715.05346 c -20.67689,-10.96218 -31.40528,-19.20011 -35.52741,-27.28015 -2.4671,-4.83592 -2.41192,-6.49218 0.26402,-7.9243 6.50829,-3.48313 25.23893,1.70439 40.32294,11.16759 20.53644,12.88388 38.71426,26.06465 37.5,27.19132 -0.275,0.25516 -7.9518,0.71628 -17.05955,1.0247 l -16.55955,0.56076 z"
       id="path3103" />
    <path
       style="fill:#000000"
       d="m 1006.394,719.19656 c -7.1364,-0.17493 -12.75,-0.72944 -12.75,-1.25941 0,-1.4191 9.0909,-8.3625 22,-16.80296 6.325,-4.13554 12.6563,-8.29868 14.0696,-9.25141 4.3684,-2.94476 16.1322,-8.55701 22.4304,-10.70097 8.7283,-2.97124 16.6458,-3.3143 19.9937,-0.8663 1.8027,1.31821 1.8089,1.54722 0.1588,5.868 -3.2899,8.61443 -13.1582,16.59463 -34.7577,28.10754 -8.3451,4.44807 -11.4351,5.6064 -14.5,5.43539 -2.1422,-0.11953 -9.6324,-0.35798 -16.6448,-0.52988 z"
       id="path3101" />
    <path
       style="fill:#000000"
       d="m 563.14395,696.30619 c -10.39763,-5.3429 -28.06024,-17.41293 -35.91682,-24.54434 -14.43921,-13.10645 -27.19122,-30.87439 -32.65512,-45.49984 -3.54116,-9.47876 -3.57333,-9.97106 -0.52089,-7.97102 1.32394,0.86748 4.42731,2.08591 6.89639,2.70763 3.88968,0.97943 5.07065,0.86467 8.84283,-0.85935 2.39449,-1.09437 6.15361,-3.59675 8.35361,-5.56084 5.721,-5.10754 8.73463,-6.18055 13.41781,-4.77743 5.70648,1.7097 7.72536,1.41186 9.99592,-1.47469 1.42688,-1.81398 2.18152,-2.19769 2.45838,-1.25 0.21971,0.7521 0.92732,3.30794 1.57245,5.67963 1.93752,7.12285 11.49565,16.10735 15.50073,14.57045 0.86458,-0.33177 1.84187,-1.67859 2.17175,-2.99292 0.32988,-1.31434 0.88849,-2.37632 1.24137,-2.35996 0.35287,0.0164 2.21659,2.79443 4.14159,6.17351 1.925,3.37907 5.98699,8.76568 9.02664,11.97026 4.48695,4.73039 6.12702,5.82649 8.71806,5.82649 2.40352,0 3.52073,-0.62851 4.52529,-2.54577 l 1.33386,-2.54577 3.10493,4.79577 c 14.04937,21.70024 15.46343,26.07433 7.45173,23.05025 -3.92161,-1.48024 -4.95281,-0.56186 -5.97043,5.31723 -0.75389,4.35545 -0.83106,4.42829 -4.69182,4.42829 -3.65694,0 -4.03038,0.27354 -5.46179,4.00058 -2.34141,6.09645 -2.98248,6.76022 -5.95485,6.16574 -3.63646,-0.72729 -4.66728,0.16828 -5.37859,4.67291 -0.64582,4.08983 -2.2316,6.67366 -4.07547,6.64048 -0.62016,-0.0112 -4.27756,-1.63894 -8.12756,-3.61729 z"
       id="path3099" />
    <path
       style="fill:#000000"
       d="m 869.718,698.533 c -0.64396,-0.77592 -1.44364,-3.13842 -1.77708,-5.25 -0.71542,-4.53067 -1.85835,-5.53253 -5.45177,-4.77891 -2.94992,0.61867 -3.55361,-0.003 -5.88529,-6.05974 -1.43452,-3.72635 -1.80915,-4.00058 -5.46508,-4.00058 -3.86086,0 -3.93746,-0.0724 -4.6882,-4.42829 -1.01851,-5.90959 -2.00914,-6.76186 -6.12828,-5.27236 -4.45313,1.61027 -4.67835,1.55754 -4.67835,-1.09533 0,-2.08387 3.79446,-8.87592 12.28547,-21.99091 l 3.09917,-4.7869 1.5393,2.5369 c 2.71021,4.46667 6.62946,3.47867 13.04942,-3.2896 3.03965,-3.20458 7.10164,-8.59119 9.02664,-11.97026 1.925,-3.37908 3.78872,-6.15715 4.14159,-6.17351 0.35288,-0.0164 0.91149,1.04562 1.24137,2.35996 0.78751,3.1377 3.11003,3.92816 6.43039,2.18854 6.20417,-3.25052 12.18665,-12.10944 12.18665,-18.04612 0,-3.18136 0.69594,-3.18839 3.17866,-0.0321 2.2119,2.81198 3.84787,3.02015 10.25912,1.3054 5.1532,-1.37827 6.68057,-0.81687 13.06222,4.80122 7.86316,6.92233 13.98199,8.30796 21.96249,4.9735 2.11453,-0.88351 3.99293,-1.45804 4.17422,-1.27674 0.59327,0.59327 -5.59053,15.76104 -8.37171,20.53433 -10.25299,17.59708 -26.35191,34.37888 -44.70415,46.60041 -11.55684,7.69619 -23.89003,14.55252 -26.18841,14.5588 -0.62015,0.002 -1.65443,-0.63177 -2.29839,-1.40769 z"
       id="path3097" />
    <path
       style="fill:#000000"
       d="m 474.77348,688.19377 c -8.64168,-8.6425 -14.51988,-17.13541 -17.28596,-24.97502 -2.69977,-7.65164 -2.5201,-8.65863 1.40643,-7.88292 4.99634,0.98706 17.67867,7.30857 22.36244,11.14656 2.3096,1.89255 5.14164,5.38766 6.29342,7.76691 2.33951,4.83279 2.81253,13.47713 0.9308,17.01021 -1.22124,2.29296 -3.77198,4.5985 -5.14727,4.65246 -0.44583,0.0175 -4.29777,-3.4557 -8.55986,-7.7182 z"
       id="path3095" />
    <path
       style="fill:#000000"
       d="m 957.43326,694.58047 c -4.20861,-3.19749 -5.01892,-13.04262 -1.66138,-20.18548 2.6537,-5.6455 8.28385,-10.32339 17.91549,-14.88535 9.39513,-4.44991 13.95663,-5.48463 13.95663,-3.16589 0,3.17284 -3.719,12.15004 -7.4982,18.10002 -3.60675,5.67847 -18.54257,21.53641 -20.21982,21.4682 -0.43012,-0.0175 -1.55184,-0.61667 -2.49272,-1.3315 z"
       id="path3093" />
    <path
       style="fill:#000000"
       d="m 1072.144,675.88892 c -1.1,-0.44252 -4.111,-0.83621 -6.691,-0.87486 -2.5801,-0.0387 -4.9363,-0.46711 -5.236,-0.9521 -0.2998,-0.485 -1.0525,-9.75492 -1.6727,-20.59982 -1.227,-21.45505 -0.4917,-42.86506 1.4514,-42.25915 0.6315,0.19694 2.9504,3.93168 5.153,8.29943 3.8519,7.63836 7.3375,19.35845 9.4797,31.87501 1.1801,6.89516 1.3653,24.24598 0.2656,24.88219 -0.4125,0.23864 -1.65,0.0718 -2.75,-0.3707 z"
       id="path3091" />
    <path
       style="fill:#000000"
       d="m 367.64395,666.63441 c 0,-10.24808 0.9,-16.62518 4.26081,-30.19064 2.24205,-9.04975 9.24657,-24.57314 11.38954,-25.24147 1.98221,-0.6182 2.69504,19.50633 1.47361,41.6023 -0.62483,11.30319 -1.47083,20.85109 -1.88001,21.21755 -0.40917,0.36646 -4.00645,0.95188 -7.99395,1.30094 l -7.25,0.63464 z"
       id="path3089" />
    <path
       style="fill:#000000"
       d="m 474.64395,658.552 c -1.925,-1.27356 -7.27395,-3.97385 -11.88656,-6.00064 -4.66459,-2.04964 -9.3245,-4.8615 -10.5,-6.33586 -4.0758,-5.11206 -15.81432,-22.81708 -18.12863,-27.34313 -3.16302,-6.18586 -5.65628,-16.21846 -5.28753,-21.27639 0.29147,-3.99793 0.43948,-4.16359 3.9835,-4.45845 10.2173,-0.85007 27.20786,19.15082 43.77718,51.53348 5.74246,11.2229 6.72243,15.64507 3.54204,15.98364 -1.1,0.1171 -3.575,-0.8291 -5.5,-2.10265 z"
       id="path3087" />
    <path
       style="fill:#000000"
       d="m 961.06555,659.60006 c -1.62875,-4.24445 16.81076,-37.40435 28.87975,-51.93459 8.8909,-10.70414 14.9617,-14.9928 20.5611,-14.52536 3.4938,0.29166 3.6495,0.4678 3.9403,4.45587 0.7222,9.90653 -3.9423,20.7522 -17.1754,39.93476 l -7.6483,11.08696 -8.7395,3.75043 c -4.80675,2.06273 -10.4174,4.8361 -12.46811,6.16303 -4.18773,2.70972 -6.58634,3.05856 -7.34984,1.0689 z"
       id="path3085" />
    <path
       style="fill:#000000"
       d="m 642.31318,649.54633 c -3.82706,-3.82706 -4.91911,-7.46409 -3.25023,-10.82485 2.49681,-5.02802 9.83914,-2.53725 13.63983,4.62711 2.68119,5.05409 2.43502,5.65845 -3.27585,8.04266 -3.7156,1.55121 -3.71833,1.5505 -7.11375,-1.84492 z"
       id="path3083" />
    <path
       style="fill:#000000"
       d="m 792.81015,650.90682 c -2.29141,-1.0259 -4.1662,-2.3885 -4.1662,-3.028 0,-0.63951 1.00766,-2.95563 2.23924,-5.14693 3.36377,-5.98501 9.94039,-8.68646 12.78951,-5.25348 2.8126,3.38898 0.50671,10.57404 -4.43203,13.81003 -2.03077,1.33061 -2.69405,1.29125 -6.43052,-0.38162 z"
       id="path3081" />
    <path
       style="fill:#000000"
       d="m 498.04522,616.10298 c -8.76685,-5.50509 -8.45312,-26.05312 0.6135,-40.18223 6.63806,-10.34452 18.293,-18.6078 23.45272,-16.62783 2.18907,0.84003 11.09827,13.21591 14.68579,20.40021 2.77569,5.55855 3.06492,6.94356 2.61654,12.52941 -0.28496,3.54999 -1.44437,8.12313 -2.66703,10.51974 -1.86141,3.64866 -2.42836,4.09762 -4.06711,3.22058 -4.74709,-2.54056 -8.18971,-1.26781 -18.44854,6.8205 -6.64477,5.23889 -11.53291,6.24142 -16.18587,3.31962 z"
       id="path3079" />
    <path
       style="fill:#000000"
       d="m 934.4087,616.50456 c -1.50439,-0.78478 -5.2613,-3.48458 -8.34869,-5.99955 -7.13341,-5.81084 -9.19368,-6.37111 -16.35621,-4.44793 -2.12683,0.57107 -5.99166,-9.49534 -6.02913,-15.70359 -0.0373,-6.17494 3.46443,-13.6547 11.19348,-23.90972 6.43141,-8.53327 9.22895,-9.34836 16.02861,-4.67007 13.035,8.96831 20.78059,23.40547 20.72523,38.63017 -0.0481,13.2403 -8.157,20.82504 -17.21329,16.10069 z"
       id="path3077" />
    <path
       style="fill:#000000"
       d="m 438.14395,589.94377 c -1.1,-0.47269 -3.47662,-0.89106 -5.28138,-0.92971 -2.0141,-0.0432 -3.51473,-0.67835 -3.88557,-1.64475 -0.88501,-2.30631 7.55892,-18.60292 14.62454,-28.22502 7.28006,-9.91414 17.24746,-19.87138 22.92555,-22.90218 3.4883,-1.86195 4.11686,-1.95652 4.11686,-0.61938 0,3.92211 -19.36513,44.33532 -25.1909,52.57104 -1.99622,2.822 -3.80604,3.25532 -7.3091,1.75 z"
       id="path3075" />
    <path
       style="fill:#000000"
       d="m 997.8997,588.28492 c -6.023,-8.51282 -25.25575,-48.70988 -25.25575,-52.78546 0,-2.68474 7.65345,2.43377 15.85875,10.60602 4.2789,4.2617 10.3423,11.56007 13.4743,16.2186 6.595,9.80946 13.1207,22.99492 12.3607,24.97536 -0.2881,0.75079 -2.4746,1.63874 -4.8588,1.97323 -2.3842,0.33448 -5.5126,0.88833 -6.952,1.23078 -2.1144,0.50306 -3.003,0.077 -4.6272,-2.21853 z"
       id="path3073" />
    <path
       style="fill:#000000"
       d="m 544.00637,581.69377 c -1.66645,-1.7875 -5.20317,-6.625 -7.85938,-10.75 -2.65621,-4.125 -6.55602,-9.47586 -8.66625,-11.89079 -5.91964,-6.77439 -5.5534,-7.79 7.41321,-20.55724 16.19777,-15.9487 37.49766,-30.2011 53.01075,-35.47109 l 5.76075,-1.95699 4.56663,3.95239 c 5.42897,4.69874 8.63352,6.42513 13.59151,7.32219 5.78058,1.04588 12.06806,-1.08107 17.89257,-6.05278 5.09742,-4.35109 5.33722,-4.43845 10.43468,-3.80156 5.03264,0.62878 5.29783,0.53886 7.49003,-2.5398 1.98823,-2.79221 2.72513,-3.1358 5.88787,-2.74528 4.85961,0.60004 7.89297,-0.66444 8.2886,-3.45517 0.25426,-1.79351 1.05927,-2.37424 3.63395,-2.62151 1.81904,-0.1747 3.54413,-0.93471 3.83354,-1.6889 0.28941,-0.75419 1.83903,-1.6596 3.4436,-2.01203 1.97369,-0.43349 3.11461,-1.42651 3.52705,-3.06981 0.38534,-1.53528 1.58082,-2.66801 3.24906,-3.07852 4.29488,-1.05685 6.83791,-3.18708 10.33688,-8.65897 l 3.30253,-5.16469 0.31324,3.24375 c 0.47692,4.93858 -4.23486,12.66059 -13.31245,21.81744 -9.0214,9.10016 -23.1028,19.78519 -48.00079,36.42321 -10.21508,6.82621 -22.38802,16.10953 -30.5,23.2599 -15.04942,13.26544 -25.77057,20.81364 -39.69386,27.94638 -11.21344,5.74452 -13.823,5.96991 -17.94372,1.54987 z"
       id="path3071" />
    <path
       style="fill:#000000"
       d="m 881.33781,580.1439 c -13.86205,-7.10137 -24.60282,-14.66783 -39.69386,-27.96282 -8.10584,-7.14112 -20.29264,-16.43046 -30.5,-23.24848 -25.03862,-16.7246 -39.01392,-27.33374 -48,-36.43846 -9.11242,-9.23273 -13.78742,-16.8869 -13.31324,-21.79717 l 0.31324,-3.24375 3.30253,5.16469 c 3.49897,5.47189 6.042,7.60212 10.33688,8.65897 1.66824,0.41051 2.86372,1.54324 3.24906,3.07852 0.41244,1.6433 1.55336,2.63632 3.52705,3.06981 1.60457,0.35243 3.15419,1.25784 3.4436,2.01203 0.28941,0.75419 2.0145,1.5142 3.83354,1.6889 2.57468,0.24727 3.37969,0.828 3.63395,2.62151 0.39563,2.79073 3.42899,4.05521 8.2886,3.45517 3.16274,-0.39052 3.89964,-0.0469 5.88787,2.74528 2.1922,3.07866 2.45739,3.16858 7.49003,2.5398 5.10082,-0.63731 5.33457,-0.55182 10.46419,3.82675 10.45797,8.92676 20.10339,8.52977 31.45457,-1.2946 l 4.56663,-3.95239 5.76075,1.95699 c 15.51309,5.26999 36.81298,19.52239 53.01075,35.47109 12.96661,12.76724 13.33285,13.78285 7.41321,20.55724 -2.11023,2.41493 -6.01004,7.76579 -8.66625,11.89079 -6.62279,10.28496 -10.248,14 -13.66146,14 -1.5247,0 -6.98844,-2.15994 -12.14164,-4.79987 z"
       id="path3069" />
    <path
       style="fill:#000000"
       d="m 609.42934,507.95376 c -3.29052,-0.99166 -11.80864,-7.80566 -11.72642,-9.38045 0.10602,-2.03046 22.07985,-19.50086 35.68955,-28.37513 11.22757,-7.32101 23.43127,-12.76582 33.08413,-14.76084 6.09999,-1.26073 17.81847,-0.72534 21.08388,0.96327 4.43655,2.29423 3.95484,3.92337 -0.96496,3.26349 -5.7711,-0.77407 -17.90735,1.10638 -21.52986,3.33594 -1.69307,1.04204 -3.59592,3.03066 -4.22857,4.41917 -0.8514,1.86862 -1.91644,2.52456 -4.09912,2.52456 -2.02747,0 -3.6227,0.85926 -5.10543,2.75 -1.18612,1.5125 -3.04989,3.23248 -4.14172,3.82218 -1.09183,0.5897 -2.52679,2.1647 -3.18881,3.5 -0.83155,1.67725 -2.19735,2.5244 -4.41786,2.74021 -3.71287,0.36085 -6.2402,3.33904 -6.2402,7.35341 0,3.01672 -3.14988,5.8342 -6.52251,5.8342 -3.05592,0 -4.47749,1.93194 -4.47749,6.08499 0,5.85845 -5.4006,8.27991 -13.21461,5.925 z"
       id="path3067" />
    <path
       style="fill:#000000"
       d="m 822.89395,507.26935 c -1.64102,-1.14472 -2.25,-2.56501 -2.25,-5.24755 0,-4.14649 -1.42291,-6.07803 -4.47749,-6.07803 -3.37263,0 -6.52251,-2.81748 -6.52251,-5.8342 0,-4.02283 -2.5267,-6.99273 -6.25605,-7.35341 -2.35449,-0.22771 -3.57787,-1.04181 -4.51326,-3.00334 -0.70577,-1.48002 -2.15971,-2.96913 -3.23097,-3.30914 -1.07127,-0.34001 -2.89009,-1.94158 -4.04183,-3.55905 -1.49228,-2.09571 -2.92654,-2.94086 -4.9908,-2.94086 -1.96446,0 -3.27713,-0.7108 -4.07873,-2.2086 -2.97631,-5.56129 -9.6385,-8.02797 -21.8957,-8.1069 -4.39596,-0.0283 -7.99266,-0.40734 -7.99266,-0.8423 0,-2.18872 6.60729,-4.01288 14.36751,-3.96661 16.96108,0.10112 32.92356,7.22251 57.15118,25.49703 12.45792,9.39683 21.35566,16.97981 21.42234,18.25692 0.0324,0.62124 -1.85353,2.68401 -4.19103,4.58392 -6.95491,5.65293 -14.03508,7.22669 -18.5,4.11212 z"
       id="path3063" />
  </g>
</svg>
