<?xml version="1.0" encoding="UTF-8" standalone="no"?>
<!-- Created with Inkscape (http://www.inkscape.org/) -->

<svg
   xmlns:dc="http://purl.org/dc/elements/1.1/"
   xmlns:cc="http://creativecommons.org/ns#"
   xmlns:rdf="http://www.w3.org/1999/02/22-rdf-syntax-ns#"
   xmlns:svg="http://www.w3.org/2000/svg"
   xmlns="http://www.w3.org/2000/svg"
   xmlns:sodipodi="http://sodipodi.sourceforge.net/DTD/sodipodi-0.dtd"
   xmlns:inkscape="http://www.inkscape.org/namespaces/inkscape"
   width="201.83025"
   height="232.47058"
   id="svg2"
   version="1.1"
   inkscape:version="0.48.5 r10040"
   sodipodi:docname="claw.svg">
  <defs
     id="defs4" />
  <sodipodi:namedview
     id="base"
     pagecolor="#ffffff"
     bordercolor="#666666"
     borderopacity="1.0"
     inkscape:pageopacity="0.0"
     inkscape:pageshadow="2"
     inkscape:zoom="0.49497475"
     inkscape:cx="266.60334"
     inkscape:cy="-51.701057"
     inkscape:document-units="px"
     inkscape:current-layer="layer1"
     showgrid="false"
     inkscape:window-width="1067"
     inkscape:window-height="801"
     inkscape:window-x="0"
     inkscape:window-y="1"
     inkscape:window-maximized="0"
     fit-margin-top="0"
     fit-margin-left="0"
     fit-margin-right="0"
     fit-margin-bottom="0" />
  <metadata
     id="metadata7">
    <rdf:RDF>
      <cc:Work
         rdf:about="">
        <dc:format>image/svg+xml</dc:format>
        <dc:type
           rdf:resource="http://purl.org/dc/dcmitype/StillImage" />
        <dc:title></dc:title>
      </cc:Work>
    </rdf:RDF>
  </metadata>
  <g
     inkscape:label="Layer 1"
     inkscape:groupmode="layer"
     id="layer1"
     transform="translate(-491.6599,-467.45322)">
    <path
       style="fill:#000000"
       d="m 563.14395,696.30619 c -10.39763,-5.3429 -28.06024,-17.41293 -35.91682,-24.54434 -14.43921,-13.10645 -27.19122,-30.87439 -32.65512,-45.49984 -3.54116,-9.47876 -3.57333,-9.97106 -0.52089,-7.97102 1.32394,0.86748 4.42731,2.08591 6.89639,2.70763 3.88968,0.97943 5.07065,0.86467 8.84283,-0.85935 2.39449,-1.09437 6.15361,-3.59675 8.35361,-5.56084 5.721,-5.10754 8.73463,-6.18055 13.41781,-4.77743 5.70648,1.7097 7.72536,1.41186 9.99592,-1.47469 1.42688,-1.81398 2.18152,-2.19769 2.45838,-1.25 0.21971,0.7521 0.92732,3.30794 1.57245,5.67963 1.93752,7.12285 11.49565,16.10735 15.50073,14.57045 0.86458,-0.33177 1.84187,-1.67859 2.17175,-2.99292 0.32988,-1.31434 0.88849,-2.37632 1.24137,-2.35996 0.35287,0.0164 2.21659,2.79443 4.14159,6.17351 1.925,3.37907 5.98699,8.76568 9.02664,11.97026 4.48695,4.73039 6.12702,5.82649 8.71806,5.82649 2.40352,0 3.52073,-0.62851 4.52529,-2.54577 l 1.33386,-2.54577 3.10493,4.79577 c 14.04937,21.70024 15.46343,26.07433 7.45173,23.05025 -3.92161,-1.48024 -4.95281,-0.56186 -5.97043,5.31723 -0.75389,4.35545 -0.83106,4.42829 -4.69182,4.42829 -3.65694,0 -4.03038,0.27354 -5.46179,4.00058 -2.34141,6.09645 -2.98248,6.76022 -5.95485,6.16574 -3.63646,-0.72729 -4.66728,0.16828 -5.37859,4.67291 -0.64582,4.08983 -2.2316,6.67366 -4.07547,6.64048 -0.62016,-0.0112 -4.27756,-1.63894 -8.12756,-3.61729 z"
       id="path3099"
       inkscape:connector-curvature="0" />
    <path
       style="fill:#000000"
       d="m 498.04522,616.10298 c -8.76685,-5.50509 -8.45312,-26.05312 0.6135,-40.18223 6.63806,-10.34452 18.293,-18.6078 23.45272,-16.62783 2.18907,0.84003 11.09827,13.21591 14.68579,20.40021 2.77569,5.55855 3.06492,6.94356 2.61654,12.52941 -0.28496,3.54999 -1.44437,8.12313 -2.66703,10.51974 -1.86141,3.64866 -2.42836,4.09762 -4.06711,3.22058 -4.74709,-2.54056 -8.18971,-1.26781 -18.44854,6.8205 -6.64477,5.23889 -11.53291,6.24142 -16.18587,3.31962 z"
       id="path3079"
       inkscape:connector-curvature="0" />
    <path
       style="fill:#000000"
       d="m 544.00637,581.69377 c -1.66645,-1.7875 -5.20317,-6.625 -7.85938,-10.75 -2.65621,-4.125 -6.55602,-9.47586 -8.66625,-11.89079 -5.91964,-6.77439 -5.5534,-7.79 7.41321,-20.55724 16.19777,-15.9487 37.49766,-30.2011 53.01075,-35.47109 l 5.76075,-1.95699 4.56663,3.95239 c 5.42897,4.69874 8.63352,6.42513 13.59151,7.32219 5.78058,1.04588 12.06806,-1.08107 17.89257,-6.05278 5.09742,-4.35109 5.33722,-4.43845 10.43468,-3.80156 5.03264,0.62878 5.29783,0.53886 7.49003,-2.5398 1.98823,-2.79221 2.72513,-3.1358 5.88787,-2.74528 4.85961,0.60004 7.89297,-0.66444 8.2886,-3.45517 0.25426,-1.79351 1.05927,-2.37424 3.63395,-2.62151 1.81904,-0.1747 3.54413,-0.93471 3.83354,-1.6889 0.28941,-0.75419 1.83903,-1.6596 3.4436,-2.01203 1.97369,-0.43349 3.11461,-1.42651 3.52705,-3.06981 0.38534,-1.53528 1.58082,-2.66801 3.24906,-3.07852 4.29488,-1.05685 6.83791,-3.18708 10.33688,-8.65897 l 3.30253,-5.16469 0.31324,3.24375 c 0.47692,4.93858 -4.23486,12.66059 -13.31245,21.81744 -9.0214,9.10016 -23.1028,19.78519 -48.00079,36.42321 -10.21508,6.82621 -22.38802,16.10953 -30.5,23.2599 -15.04942,13.26544 -25.77057,20.81364 -39.69386,27.94638 -11.21344,5.74452 -13.823,5.96991 -17.94372,1.54987 z"
       id="path3071"
       inkscape:connector-curvature="0" />
  </g>
</svg>
