<?xml version="1.0" encoding="UTF-8" standalone="no"?>
<!-- Created with Inkscape (http://www.inkscape.org/) -->

<svg
   xmlns:dc="http://purl.org/dc/elements/1.1/"
   xmlns:cc="http://creativecommons.org/ns#"
   xmlns:rdf="http://www.w3.org/1999/02/22-rdf-syntax-ns#"
   xmlns:svg="http://www.w3.org/2000/svg"
   xmlns="http://www.w3.org/2000/svg"
   xmlns:sodipodi="http://sodipodi.sourceforge.net/DTD/sodipodi-0.dtd"
   xmlns:inkscape="http://www.inkscape.org/namespaces/inkscape"
   width="193.72603"
   height="77.480408"
   id="svg3185"
   version="1.1"
   inkscape:version="0.48.5 r10040"
   sodipodi:docname="crabbody.svg">
  <defs
     id="defs3187" />
  <sodipodi:namedview
     id="base"
     pagecolor="#ffffff"
     bordercolor="#666666"
     borderopacity="1.0"
     inkscape:pageopacity="0.0"
     inkscape:pageshadow="2"
     inkscape:zoom="3.959798"
     inkscape:cx="77.145639"
     inkscape:cy="41.804444"
     inkscape:document-units="px"
     inkscape:current-layer="layer1"
     showgrid="false"
     inkscape:window-width="952"
     inkscape:window-height="644"
     inkscape:window-x="20"
     inkscape:window-y="21"
     inkscape:window-maximized="0"
     fit-margin-top="0"
     fit-margin-left="0"
     fit-margin-right="0"
     fit-margin-bottom="0" />
  <metadata
     id="metadata3190">
    <rdf:RDF>
      <cc:Work
         rdf:about="">
        <dc:format>image/svg+xml</dc:format>
        <dc:type
           rdf:resource="http://purl.org/dc/dcmitype/StillImage" />
        <dc:title />
      </cc:Work>
    </rdf:RDF>
  </metadata>
  <g
     inkscape:label="Layer 1"
     inkscape:groupmode="layer"
     id="layer1"
     transform="translate(-104.49568,-587.09233)">
    <path
       style="fill:none;stroke:#000000;stroke-opacity:1"
       d="m 191.91017,663.88778 c -8.9788,-0.88814 -13.42563,-2.98961 -26.15434,-12.35996 -8.64228,-6.36207 -15.92289,-10.50154 -22.11978,-12.5764 -5.49307,-1.8392 -15.37954,-3.58215 -32.1143,-5.66162 -3.74259,-0.46506 -6.67663,-0.95666 -6.52009,-1.09246 0.15646,-0.13584 3.34741,-0.61378 7.09087,-1.06221 10.61436,-1.27143 16.20701,-2.98614 17.83287,-5.46751 0.33135,-0.50572 0.68828,-1.68072 0.79314,-2.61109 0.1538,-1.36453 0.30691,-1.6466 0.79191,-1.45885 1.80066,0.69709 2.61343,0.62405 3.55719,-0.31971 0.77379,-0.77379 0.95613,-1.31463 0.95613,-2.83594 0,-2.04224 0.22463,-2.20095 2.10351,-1.48659 0.56886,0.21637 1.42488,0.29521 1.90225,0.17538 1.03674,-0.26021 2.89661,-3.05009 3.23468,-4.8521 0.22366,-1.19269 0.33369,-1.27788 1.58831,-1.2307 1.0421,0.0393 1.54597,-0.17951 2.22079,-0.96414 0.48011,-0.55812 0.87288,-1.42457 0.87288,-1.92544 0,-0.76081 0.18145,-0.91067 1.10323,-0.91067 1.22001,0 2.31271,-0.96055 3.01132,-2.64717 0.34271,-0.82735 0.69032,-1.07858 1.49227,-1.07858 1.29135,0 2.58988,-1.51961 2.58988,-3.03085 0,-1.20982 -0.0218,-1.19866 1.30415,-0.69486 1.64087,0.62386 2.30645,-0.002 3.33033,-3.1361 0.17781,-0.54443 0.33684,-0.6109 0.66829,-0.27944 0.67007,0.67006 2.31734,0.51627 3.37414,-0.31501 0.53617,-0.42174 1.23199,-1.60371 1.59015,-2.70117 0.87776,-2.68944 0.87109,-2.68387 1.97565,-1.65479 0.54106,0.50404 1.34993,1.10461 1.79753,1.33457 2.34591,1.20523 6.3369,-0.23651 9.23666,-3.33649 l 1.74173,-1.86205 1.28895,1.13173 c 1.64164,1.44138 2.87031,1.44465 4.30349,0.0121 l 1.12023,-1.12026 0.95053,0.74769 c 1.3313,1.04719 3.49116,0.98519 4.8267,-0.13851 l 1.05326,-0.88625 1.29341,0.88625 c 1.53557,1.05219 2.15886,1.09338 3.90984,0.25839 1.23468,-0.58878 1.39864,-0.58878 2.63332,0 1.75255,0.83574 2.43409,0.79319 3.96796,-0.24772 l 1.29028,-0.87562 1.01794,0.87562 c 1.25304,1.07781 3.33853,1.15565 4.8185,0.17975 1.04753,-0.69068 1.04802,-0.69059 2.11365,0.37502 1.38459,1.38459 2.62735,1.35808 4.278,-0.0912 l 1.31783,-1.15708 1.684,1.87302 c 2.78362,3.09605 6.8727,4.59072 9.23664,3.37622 0.44757,-0.22996 1.25646,-0.83052 1.7975,-1.33457 1.10459,-1.02907 1.09792,-1.03465 1.97567,1.65479 0.35816,1.09746 1.05399,2.27943 1.59015,2.70117 1.0568,0.83128 2.70408,0.98507 3.37414,0.31501 0.33143,-0.33146 0.48641,-0.26499 0.65158,0.27944 0.90677,2.98872 1.7665,3.66271 3.81291,2.98918 0.7415,-0.24406 0.83829,-0.14967 0.83829,0.81667 0,1.54586 1.28972,3.05596 2.60998,3.05596 0.7393,0 1.13819,0.22875 1.3027,0.74715 0.47419,1.494 2.06885,2.9786 3.19939,2.9786 0.90194,0 1.0846,0.15331 1.0846,0.91067 0,0.50087 0.3928,1.36732 0.87288,1.92544 0.67484,0.78456 1.17872,1.00331 2.22082,0.96414 1.25462,-0.0473 1.36455,0.0381 1.5883,1.2307 0.34303,1.82838 2.19739,4.59174 3.26038,4.85855 0.49148,0.12323 1.52472,-0.0395 2.29606,-0.3617 0.77134,-0.32229 1.46578,-0.58597 1.54321,-0.58597 0.0774,0 0.1407,0.92974 0.1407,2.06611 0,1.72131 0.15961,2.22567 0.95613,3.02224 0.95101,0.95101 1.75323,1.01777 3.60793,0.30023 0.54194,-0.20958 0.652,-0.04 0.652,1.00431 0,4.6796 5.9366,7.27607 19.98523,8.74083 3.35231,0.34953 6.0951,0.77593 6.0951,0.94757 0,0.1715 -0.28447,0.31208 -0.63212,0.31208 -3.55799,0 -29.21423,3.8995 -34.55689,5.25232 -8.14556,2.06254 -16.52256,6.64181 -28.52151,15.59121 -9.41306,7.02072 -13.09808,8.84265 -20.00336,9.88994 -4.2363,0.64251 -17.82598,0.99385 -22.09775,0.57131 z"
       id="path2991"
       inkscape:connector-curvature="0" />
  </g>
</svg>
